<svg xmlns="http://www.w3.org/2000/svg" xmlns:xlink="http://www.w3.org/1999/xlink" width="352" zoomAndPan="magnify" viewBox="0 0 264 89.249998" height="119" preserveAspectRatio="xMidYMid meet" version="1.0"><defs><g/><clipPath id="ca3c550893"><path d="M 221 20 L 243 20 L 243 42 L 221 42 Z M 221 20 " clip-rule="nonzero"/></clipPath><clipPath id="419f316cba"><path d="M 217.191406 23.363281 L 231.9375 9.734375 L 252.128906 31.582031 L 237.382812 45.210938 Z M 217.191406 23.363281 " clip-rule="nonzero"/></clipPath><clipPath id="e5c2762719"><path d="M 217.191406 23.363281 L 231.9375 9.734375 L 252.128906 31.582031 L 237.382812 45.210938 Z M 217.191406 23.363281 " clip-rule="nonzero"/></clipPath><clipPath id="7f82fc3c5e"><path d="M 232 10 L 253 10 L 253 32 L 232 32 Z M 232 10 " clip-rule="nonzero"/></clipPath><clipPath id="1db5359c93"><path d="M 227.773438 13.585938 L 242.519531 -0.046875 L 262.710938 21.800781 L 247.964844 35.433594 Z M 227.773438 13.585938 " clip-rule="nonzero"/></clipPath><clipPath id="8c57083fb7"><path d="M 227.773438 13.585938 L 242.519531 -0.046875 L 262.710938 21.800781 L 247.964844 35.433594 Z M 227.773438 13.585938 " clip-rule="nonzero"/></clipPath></defs><g clip-path="url(#ca3c550893)"><g clip-path="url(#419f316cba)"><g clip-path="url(#e5c2762719)"><path fill="#15735d" d="M 242.1875 20.925781 L 224.3125 20.132812 C 220.859375 19.980469 220.277344 26.703125 224.367188 26.816406 L 235.492188 27.117188 L 234.640625 38.308594 C 234.382812 41.714844 241.027344 42.074219 241.21875 38.613281 Z M 242.1875 20.925781 " fill-opacity="1" fill-rule="nonzero"/></g></g></g><g clip-path="url(#7f82fc3c5e)"><g clip-path="url(#1db5359c93)"><g clip-path="url(#8c57083fb7)"><path fill="#15735d" d="M 252.769531 11.148438 L 234.894531 10.351562 C 231.441406 10.199219 230.859375 16.925781 234.949219 17.035156 L 246.070312 17.335938 L 245.222656 28.527344 C 244.964844 31.9375 251.609375 32.296875 251.800781 28.832031 Z M 252.769531 11.148438 " fill-opacity="1" fill-rule="nonzero"/></g></g></g><g fill="#ffffff" fill-opacity="1"><g transform="translate(12.661237, 63.939207)"><g><path d="M 6.28125 -33.90625 C 7.414062 -33.90625 8.320312 -33.367188 9 -32.296875 L 20.109375 -14.90625 L 31.1875 -32.359375 C 31.539062 -32.890625 31.972656 -33.28125 32.484375 -33.53125 C 33.003906 -33.78125 33.507812 -33.90625 34 -33.90625 C 34.78125 -33.90625 35.472656 -33.644531 36.078125 -33.125 C 36.679688 -32.613281 36.984375 -31.878906 36.984375 -30.921875 L 36.984375 -2.765625 C 36.984375 -1.847656 36.644531 -1.15625 35.96875 -0.6875 C 35.300781 -0.226562 34.59375 0 33.84375 0 C 33.0625 0 32.359375 -0.226562 31.734375 -0.6875 C 31.117188 -1.15625 30.8125 -1.847656 30.8125 -2.765625 L 30.8125 -20.703125 L 22.890625 -8.296875 C 22.597656 -7.765625 22.195312 -7.375 21.6875 -7.125 C 21.175781 -6.882812 20.648438 -6.765625 20.109375 -6.765625 C 19.578125 -6.765625 19.035156 -6.910156 18.484375 -7.203125 C 17.941406 -7.503906 17.53125 -7.925781 17.25 -8.46875 L 9.421875 -20.65625 L 9.421875 -2.765625 C 9.421875 -1.847656 9.09375 -1.15625 8.4375 -0.6875 C 7.78125 -0.226562 7.078125 0 6.328125 0 C 5.546875 0 4.835938 -0.226562 4.203125 -0.6875 C 3.566406 -1.15625 3.25 -1.847656 3.25 -2.765625 L 3.25 -30.859375 C 3.25 -31.785156 3.554688 -32.523438 4.171875 -33.078125 C 4.796875 -33.628906 5.5 -33.90625 6.28125 -33.90625 Z M 6.28125 -33.90625 "/></g></g></g><g fill="#ffffff" fill-opacity="1"><g transform="translate(53.315784, 63.939207)"><g><path d="M 15.21875 -4.734375 C 16.25 -4.734375 17.257812 -4.875 18.25 -5.15625 C 19.25 -5.445312 20.171875 -5.925781 21.015625 -6.59375 C 21.835938 -7.34375 22.640625 -7.691406 23.421875 -7.640625 C 24.203125 -7.585938 24.847656 -7.300781 25.359375 -6.78125 C 25.867188 -6.269531 26.125 -5.628906 26.125 -4.859375 C 26.125 -4.097656 25.753906 -3.363281 25.015625 -2.65625 C 23.773438 -1.445312 22.300781 -0.601562 20.59375 -0.125 C 18.894531 0.34375 17.15625 0.5625 15.375 0.53125 C 12.613281 0.53125 10.175781 -0.0351562 8.0625 -1.171875 C 5.945312 -2.304688 4.296875 -3.882812 3.109375 -5.90625 C 1.921875 -7.925781 1.328125 -10.269531 1.328125 -12.9375 C 1.328125 -15.84375 1.894531 -18.394531 3.03125 -20.59375 C 4.164062 -22.789062 5.769531 -24.507812 7.84375 -25.75 C 9.925781 -27 12.382812 -27.625 15.21875 -27.625 C 18.0625 -27.625 20.472656 -27.046875 22.453125 -25.890625 C 24.441406 -24.734375 25.957031 -23.117188 27 -21.046875 C 28.050781 -18.972656 28.578125 -16.550781 28.578125 -13.78125 C 28.578125 -12.894531 28.398438 -12.140625 28.046875 -11.515625 C 27.691406 -10.898438 26.75 -10.59375 25.21875 -10.59375 L 7.5 -10.59375 C 8 -8.851562 8.941406 -7.441406 10.328125 -6.359375 C 11.710938 -5.273438 13.34375 -4.734375 15.21875 -4.734375 Z M 15.28125 -22.359375 C 13.21875 -22.359375 11.492188 -21.707031 10.109375 -20.40625 C 8.722656 -19.113281 7.835938 -17.421875 7.453125 -15.328125 L 22.9375 -15.328125 C 22.757812 -17.421875 22.066406 -19.113281 20.859375 -20.40625 C 19.648438 -21.707031 17.789062 -22.359375 15.28125 -22.359375 Z M 15.28125 -22.359375 "/></g></g></g><g fill="#ffffff" fill-opacity="1"><g transform="translate(84.232366, 63.939207)"><g><path d="M 0.6875 -6.328125 C 0.4375 -7.328125 0.664062 -8.125 1.375 -8.71875 C 2.09375 -9.320312 2.875 -9.625 3.71875 -9.625 C 4.363281 -9.625 4.929688 -9.4375 5.421875 -9.0625 C 5.921875 -8.695312 6.296875 -8.140625 6.546875 -7.390625 C 6.753906 -6.753906 7.210938 -6.234375 7.921875 -5.828125 C 8.640625 -5.421875 9.46875 -5.128906 10.40625 -4.953125 C 11.34375 -4.773438 12.289062 -4.6875 13.25 -4.6875 C 15.164062 -4.6875 16.707031 -5.03125 17.875 -5.71875 C 19.050781 -6.414062 19.640625 -7.296875 19.640625 -8.359375 C 19.640625 -9.097656 19.328125 -9.644531 18.703125 -10 C 18.085938 -10.351562 17.269531 -10.601562 16.25 -10.75 C 15.238281 -10.894531 14.164062 -11 13.03125 -11.0625 C 11.539062 -11.207031 10.078125 -11.382812 8.640625 -11.59375 C 7.210938 -11.8125 5.910156 -12.175781 4.734375 -12.6875 C 3.566406 -13.207031 2.625 -13.972656 1.90625 -14.984375 C 1.195312 -15.992188 0.84375 -17.367188 0.84375 -19.109375 C 0.84375 -20.804688 1.335938 -22.289062 2.328125 -23.5625 C 3.328125 -24.84375 4.734375 -25.835938 6.546875 -26.546875 C 8.359375 -27.265625 10.453125 -27.625 12.828125 -27.625 C 14.210938 -27.625 15.703125 -27.488281 17.296875 -27.21875 C 18.890625 -26.957031 20.367188 -26.414062 21.734375 -25.59375 C 23.097656 -24.78125 24.101562 -23.519531 24.75 -21.8125 C 25 -21.101562 24.976562 -20.472656 24.6875 -19.921875 C 24.40625 -19.378906 23.988281 -18.960938 23.4375 -18.671875 C 22.894531 -18.390625 22.335938 -18.25 21.765625 -18.25 C 21.128906 -18.25 20.601562 -18.375 20.1875 -18.625 C 19.78125 -18.875 19.4375 -19.300781 19.15625 -19.90625 C 18.84375 -20.644531 18.300781 -21.191406 17.53125 -21.546875 C 16.769531 -21.898438 15.953125 -22.125 15.078125 -22.21875 C 14.210938 -22.3125 13.460938 -22.359375 12.828125 -22.359375 C 11.054688 -22.359375 9.628906 -22.054688 8.546875 -21.453125 C 7.460938 -20.847656 6.921875 -20.046875 6.921875 -19.046875 C 6.921875 -18.203125 7.203125 -17.628906 7.765625 -17.328125 C 8.335938 -17.023438 9.109375 -16.84375 10.078125 -16.78125 C 11.054688 -16.726562 12.148438 -16.632812 13.359375 -16.5 C 14.847656 -16.320312 16.316406 -16.125 17.765625 -15.90625 C 19.222656 -15.695312 20.554688 -15.332031 21.765625 -14.8125 C 22.972656 -14.300781 23.929688 -13.539062 24.640625 -12.53125 C 25.347656 -11.519531 25.703125 -10.128906 25.703125 -8.359375 C 25.703125 -6.617188 25.175781 -5.070312 24.125 -3.71875 C 23.082031 -2.375 21.628906 -1.328125 19.765625 -0.578125 C 17.910156 0.160156 15.738281 0.53125 13.25 0.53125 C 12.15625 0.53125 10.957031 0.445312 9.65625 0.28125 C 8.363281 0.125 7.101562 -0.191406 5.875 -0.671875 C 4.65625 -1.148438 3.582031 -1.835938 2.65625 -2.734375 C 1.738281 -3.640625 1.082031 -4.835938 0.6875 -6.328125 Z M 0.6875 -6.328125 "/></g></g></g><g fill="#ffffff" fill-opacity="1"><g transform="translate(110.679062, 63.939207)"><g><path d="M 0.6875 -6.328125 C 0.4375 -7.328125 0.664062 -8.125 1.375 -8.71875 C 2.09375 -9.320312 2.875 -9.625 3.71875 -9.625 C 4.363281 -9.625 4.929688 -9.4375 5.421875 -9.0625 C 5.921875 -8.695312 6.296875 -8.140625 6.546875 -7.390625 C 6.753906 -6.753906 7.210938 -6.234375 7.921875 -5.828125 C 8.640625 -5.421875 9.46875 -5.128906 10.40625 -4.953125 C 11.34375 -4.773438 12.289062 -4.6875 13.25 -4.6875 C 15.164062 -4.6875 16.707031 -5.03125 17.875 -5.71875 C 19.050781 -6.414062 19.640625 -7.296875 19.640625 -8.359375 C 19.640625 -9.097656 19.328125 -9.644531 18.703125 -10 C 18.085938 -10.351562 17.269531 -10.601562 16.25 -10.75 C 15.238281 -10.894531 14.164062 -11 13.03125 -11.0625 C 11.539062 -11.207031 10.078125 -11.382812 8.640625 -11.59375 C 7.210938 -11.8125 5.910156 -12.175781 4.734375 -12.6875 C 3.566406 -13.207031 2.625 -13.972656 1.90625 -14.984375 C 1.195312 -15.992188 0.84375 -17.367188 0.84375 -19.109375 C 0.84375 -20.804688 1.335938 -22.289062 2.328125 -23.5625 C 3.328125 -24.84375 4.734375 -25.835938 6.546875 -26.546875 C 8.359375 -27.265625 10.453125 -27.625 12.828125 -27.625 C 14.210938 -27.625 15.703125 -27.488281 17.296875 -27.21875 C 18.890625 -26.957031 20.367188 -26.414062 21.734375 -25.59375 C 23.097656 -24.78125 24.101562 -23.519531 24.75 -21.8125 C 25 -21.101562 24.976562 -20.472656 24.6875 -19.921875 C 24.40625 -19.378906 23.988281 -18.960938 23.4375 -18.671875 C 22.894531 -18.390625 22.335938 -18.25 21.765625 -18.25 C 21.128906 -18.25 20.601562 -18.375 20.1875 -18.625 C 19.78125 -18.875 19.4375 -19.300781 19.15625 -19.90625 C 18.84375 -20.644531 18.300781 -21.191406 17.53125 -21.546875 C 16.769531 -21.898438 15.953125 -22.125 15.078125 -22.21875 C 14.210938 -22.3125 13.460938 -22.359375 12.828125 -22.359375 C 11.054688 -22.359375 9.628906 -22.054688 8.546875 -21.453125 C 7.460938 -20.847656 6.921875 -20.046875 6.921875 -19.046875 C 6.921875 -18.203125 7.203125 -17.628906 7.765625 -17.328125 C 8.335938 -17.023438 9.109375 -16.84375 10.078125 -16.78125 C 11.054688 -16.726562 12.148438 -16.632812 13.359375 -16.5 C 14.847656 -16.320312 16.316406 -16.125 17.765625 -15.90625 C 19.222656 -15.695312 20.554688 -15.332031 21.765625 -14.8125 C 22.972656 -14.300781 23.929688 -13.539062 24.640625 -12.53125 C 25.347656 -11.519531 25.703125 -10.128906 25.703125 -8.359375 C 25.703125 -6.617188 25.175781 -5.070312 24.125 -3.71875 C 23.082031 -2.375 21.628906 -1.328125 19.765625 -0.578125 C 17.910156 0.160156 15.738281 0.53125 13.25 0.53125 C 12.15625 0.53125 10.957031 0.445312 9.65625 0.28125 C 8.363281 0.125 7.101562 -0.191406 5.875 -0.671875 C 4.65625 -1.148438 3.582031 -1.835938 2.65625 -2.734375 C 1.738281 -3.640625 1.082031 -4.835938 0.6875 -6.328125 Z M 0.6875 -6.328125 "/></g></g></g><g fill="#ffffff" fill-opacity="1"><g transform="translate(137.125753, 63.939207)"><g><path d="M 15.21875 -4.734375 C 16.25 -4.734375 17.257812 -4.875 18.25 -5.15625 C 19.25 -5.445312 20.171875 -5.925781 21.015625 -6.59375 C 21.835938 -7.34375 22.640625 -7.691406 23.421875 -7.640625 C 24.203125 -7.585938 24.847656 -7.300781 25.359375 -6.78125 C 25.867188 -6.269531 26.125 -5.628906 26.125 -4.859375 C 26.125 -4.097656 25.753906 -3.363281 25.015625 -2.65625 C 23.773438 -1.445312 22.300781 -0.601562 20.59375 -0.125 C 18.894531 0.34375 17.15625 0.5625 15.375 0.53125 C 12.613281 0.53125 10.175781 -0.0351562 8.0625 -1.171875 C 5.945312 -2.304688 4.296875 -3.882812 3.109375 -5.90625 C 1.921875 -7.925781 1.328125 -10.269531 1.328125 -12.9375 C 1.328125 -15.84375 1.894531 -18.394531 3.03125 -20.59375 C 4.164062 -22.789062 5.769531 -24.507812 7.84375 -25.75 C 9.925781 -27 12.382812 -27.625 15.21875 -27.625 C 18.0625 -27.625 20.472656 -27.046875 22.453125 -25.890625 C 24.441406 -24.734375 25.957031 -23.117188 27 -21.046875 C 28.050781 -18.972656 28.578125 -16.550781 28.578125 -13.78125 C 28.578125 -12.894531 28.398438 -12.140625 28.046875 -11.515625 C 27.691406 -10.898438 26.75 -10.59375 25.21875 -10.59375 L 7.5 -10.59375 C 8 -8.851562 8.941406 -7.441406 10.328125 -6.359375 C 11.710938 -5.273438 13.34375 -4.734375 15.21875 -4.734375 Z M 15.28125 -22.359375 C 13.21875 -22.359375 11.492188 -21.707031 10.109375 -20.40625 C 8.722656 -19.113281 7.835938 -17.421875 7.453125 -15.328125 L 22.9375 -15.328125 C 22.757812 -17.421875 22.066406 -19.113281 20.859375 -20.40625 C 19.648438 -21.707031 17.789062 -22.359375 15.28125 -22.359375 Z M 15.28125 -22.359375 "/></g></g></g><g fill="#ffffff" fill-opacity="1"><g transform="translate(168.042332, 63.939207)"><g><path d="M 24.859375 -27.09375 C 25.773438 -27.09375 26.515625 -26.789062 27.078125 -26.1875 C 27.648438 -25.582031 27.9375 -24.875 27.9375 -24.0625 L 27.9375 -1.65625 C 27.9375 0.9375 27.332031 3.117188 26.125 4.890625 C 24.925781 6.671875 23.3125 8.003906 21.28125 8.890625 C 19.257812 9.773438 17.007812 10.21875 14.53125 10.21875 C 12.46875 10.21875 10.601562 9.953125 8.9375 9.421875 C 7.269531 8.890625 5.707031 7.945312 4.25 6.59375 C 3.539062 5.882812 3.203125 5.15625 3.234375 4.40625 C 3.273438 3.664062 3.5625 3.03125 4.09375 2.5 C 4.625 1.96875 5.269531 1.664062 6.03125 1.59375 C 6.800781 1.519531 7.539062 1.804688 8.25 2.453125 C 9.351562 3.410156 10.375 4.03125 11.3125 4.3125 C 12.25 4.59375 13.320312 4.734375 14.53125 4.734375 C 15.800781 4.734375 17.003906 4.507812 18.140625 4.0625 C 19.273438 3.625 20.195312 2.925781 20.90625 1.96875 C 21.625 1.007812 21.984375 -0.195312 21.984375 -1.65625 L 21.984375 -2.125 C 20.773438 -1.238281 19.457031 -0.570312 18.03125 -0.125 C 16.613281 0.3125 15.285156 0.53125 14.046875 0.53125 C 11.492188 0.53125 9.25 -0.0507812 7.3125 -1.21875 C 5.382812 -2.394531 3.878906 -4.046875 2.796875 -6.171875 C 1.710938 -8.296875 1.171875 -10.78125 1.171875 -13.625 C 1.171875 -16.394531 1.71875 -18.828125 2.8125 -20.921875 C 3.914062 -23.015625 5.453125 -24.65625 7.421875 -25.84375 C 9.390625 -27.03125 11.671875 -27.625 14.265625 -27.625 C 15.472656 -27.625 16.757812 -27.445312 18.125 -27.09375 C 19.488281 -26.738281 20.773438 -26.113281 21.984375 -25.21875 C 22.367188 -26.46875 23.328125 -27.09375 24.859375 -27.09375 Z M 14.203125 -4.84375 C 15.835938 -4.84375 17.390625 -5.195312 18.859375 -5.90625 C 20.335938 -6.613281 21.359375 -7.675781 21.921875 -9.09375 L 21.921875 -17.984375 C 21.253906 -19.335938 20.234375 -20.382812 18.859375 -21.125 C 17.492188 -21.875 16.101562 -22.25 14.6875 -22.25 C 12.445312 -22.25 10.644531 -21.429688 9.28125 -19.796875 C 7.914062 -18.160156 7.234375 -16.085938 7.234375 -13.578125 C 7.234375 -10.941406 7.867188 -8.828125 9.140625 -7.234375 C 10.421875 -5.640625 12.109375 -4.84375 14.203125 -4.84375 Z M 14.203125 -4.84375 "/></g></g></g><g fill="#ffffff" fill-opacity="1"><g transform="translate(198.905697, 63.939207)"><g><path d="M 24.796875 -27.09375 C 25.722656 -27.09375 26.515625 -26.691406 27.171875 -25.890625 C 27.828125 -25.085938 27.957031 -24.15625 27.5625 -23.09375 L 12.03125 7.390625 C 11.675781 8.066406 11.222656 8.597656 10.671875 8.984375 C 10.117188 9.378906 9.539062 9.578125 8.9375 9.578125 C 8.332031 9.578125 7.773438 9.375 7.265625 8.96875 C 6.753906 8.5625 6.398438 8.035156 6.203125 7.390625 C 6.003906 6.753906 6.082031 6.082031 6.4375 5.375 L 10.484375 -2.609375 L 0 -22.890625 C -0.320312 -23.597656 -0.363281 -24.269531 -0.125 -24.90625 C 0.101562 -25.539062 0.484375 -26.0625 1.015625 -26.46875 C 1.546875 -26.882812 2.128906 -27.09375 2.765625 -27.09375 C 3.335938 -27.09375 3.890625 -26.914062 4.421875 -26.5625 C 4.953125 -26.207031 5.34375 -25.742188 5.59375 -25.171875 L 13.78125 -9.15625 L 21.984375 -25.21875 C 22.234375 -25.789062 22.601562 -26.242188 23.09375 -26.578125 C 23.59375 -26.921875 24.160156 -27.09375 24.796875 -27.09375 Z M 24.796875 -27.09375 "/></g></g></g><g fill="#ffffff" fill-opacity="1"><g transform="translate(15.50065, 76.909725)"><g><path d="M 8.359375 -7.796875 L 8.359375 0 L 7.84375 0 L 7.84375 -6.734375 L 4.859375 0 L 4.453125 0 L 1.4375 -6.734375 L 1.4375 0 L 0.9375 0 L 0.9375 -7.796875 L 1.46875 -7.796875 L 4.65625 -0.671875 L 7.828125 -7.796875 Z M 8.359375 -7.796875 "/></g></g></g><g fill="#ffffff" fill-opacity="1"><g transform="translate(24.370175, 76.909725)"><g><path d="M 6.484375 -3.5 C 6.484375 -3.21875 6.472656 -3.007812 6.453125 -2.875 L 1.140625 -2.875 C 1.148438 -2.320312 1.269531 -1.859375 1.5 -1.484375 C 1.726562 -1.109375 2.023438 -0.828125 2.390625 -0.640625 C 2.765625 -0.453125 3.171875 -0.359375 3.609375 -0.359375 C 4.210938 -0.359375 4.71875 -0.503906 5.125 -0.796875 C 5.53125 -1.097656 5.789062 -1.503906 5.90625 -2.015625 L 6.4375 -2.015625 C 6.3125 -1.390625 6 -0.878906 5.5 -0.484375 C 5 -0.0976562 4.367188 0.09375 3.609375 0.09375 C 3.035156 0.09375 2.519531 -0.0351562 2.0625 -0.296875 C 1.613281 -0.554688 1.257812 -0.925781 1 -1.40625 C 0.738281 -1.882812 0.609375 -2.441406 0.609375 -3.078125 C 0.609375 -3.722656 0.734375 -4.285156 0.984375 -4.765625 C 1.242188 -5.242188 1.597656 -5.609375 2.046875 -5.859375 C 2.503906 -6.109375 3.023438 -6.234375 3.609375 -6.234375 C 4.191406 -6.234375 4.703125 -6.109375 5.140625 -5.859375 C 5.578125 -5.609375 5.910156 -5.269531 6.140625 -4.84375 C 6.367188 -4.425781 6.484375 -3.976562 6.484375 -3.5 Z M 5.96875 -3.296875 C 5.988281 -3.847656 5.890625 -4.3125 5.671875 -4.6875 C 5.460938 -5.0625 5.171875 -5.34375 4.796875 -5.53125 C 4.429688 -5.71875 4.03125 -5.8125 3.59375 -5.8125 C 3.164062 -5.8125 2.765625 -5.71875 2.390625 -5.53125 C 2.023438 -5.34375 1.726562 -5.0625 1.5 -4.6875 C 1.269531 -4.3125 1.148438 -3.847656 1.140625 -3.296875 Z M 5.96875 -3.296875 "/></g></g></g><g fill="#ffffff" fill-opacity="1"><g transform="translate(31.027982, 76.909725)"><g><path d="M 2.984375 0.09375 C 2.296875 0.09375 1.734375 -0.0546875 1.296875 -0.359375 C 0.859375 -0.660156 0.613281 -1.09375 0.5625 -1.65625 L 1.09375 -1.65625 C 1.125 -1.257812 1.300781 -0.941406 1.625 -0.703125 C 1.957031 -0.472656 2.410156 -0.359375 2.984375 -0.359375 C 3.453125 -0.359375 3.820312 -0.472656 4.09375 -0.703125 C 4.375 -0.941406 4.515625 -1.238281 4.515625 -1.59375 C 4.515625 -1.832031 4.441406 -2.03125 4.296875 -2.1875 C 4.148438 -2.34375 3.96875 -2.460938 3.75 -2.546875 C 3.53125 -2.628906 3.226562 -2.71875 2.84375 -2.8125 C 2.394531 -2.9375 2.03125 -3.054688 1.75 -3.171875 C 1.46875 -3.285156 1.226562 -3.457031 1.03125 -3.6875 C 0.832031 -3.925781 0.734375 -4.242188 0.734375 -4.640625 C 0.734375 -4.929688 0.820312 -5.195312 1 -5.4375 C 1.175781 -5.6875 1.414062 -5.878906 1.71875 -6.015625 C 2.03125 -6.160156 2.382812 -6.234375 2.78125 -6.234375 C 3.425781 -6.234375 3.945312 -6.070312 4.34375 -5.75 C 4.738281 -5.4375 4.953125 -4.992188 4.984375 -4.421875 L 4.46875 -4.421875 C 4.445312 -4.828125 4.285156 -5.160156 3.984375 -5.421875 C 3.691406 -5.679688 3.285156 -5.8125 2.765625 -5.8125 C 2.328125 -5.8125 1.960938 -5.695312 1.671875 -5.46875 C 1.390625 -5.238281 1.25 -4.960938 1.25 -4.640625 C 1.25 -4.347656 1.328125 -4.113281 1.484375 -3.9375 C 1.648438 -3.757812 1.851562 -3.625 2.09375 -3.53125 C 2.332031 -3.4375 2.648438 -3.335938 3.046875 -3.234375 C 3.472656 -3.117188 3.816406 -3.003906 4.078125 -2.890625 C 4.335938 -2.785156 4.554688 -2.628906 4.734375 -2.421875 C 4.921875 -2.210938 5.015625 -1.9375 5.015625 -1.59375 C 5.015625 -1.269531 4.925781 -0.976562 4.75 -0.71875 C 4.570312 -0.46875 4.328125 -0.269531 4.015625 -0.125 C 3.710938 0.0195312 3.367188 0.09375 2.984375 0.09375 Z M 2.984375 0.09375 "/></g></g></g><g fill="#ffffff" fill-opacity="1"><g transform="translate(36.233992, 76.909725)"><g><path d="M 2.984375 0.09375 C 2.296875 0.09375 1.734375 -0.0546875 1.296875 -0.359375 C 0.859375 -0.660156 0.613281 -1.09375 0.5625 -1.65625 L 1.09375 -1.65625 C 1.125 -1.257812 1.300781 -0.941406 1.625 -0.703125 C 1.957031 -0.472656 2.410156 -0.359375 2.984375 -0.359375 C 3.453125 -0.359375 3.820312 -0.472656 4.09375 -0.703125 C 4.375 -0.941406 4.515625 -1.238281 4.515625 -1.59375 C 4.515625 -1.832031 4.441406 -2.03125 4.296875 -2.1875 C 4.148438 -2.34375 3.96875 -2.460938 3.75 -2.546875 C 3.53125 -2.628906 3.226562 -2.71875 2.84375 -2.8125 C 2.394531 -2.9375 2.03125 -3.054688 1.75 -3.171875 C 1.46875 -3.285156 1.226562 -3.457031 1.03125 -3.6875 C 0.832031 -3.925781 0.734375 -4.242188 0.734375 -4.640625 C 0.734375 -4.929688 0.820312 -5.195312 1 -5.4375 C 1.175781 -5.6875 1.414062 -5.878906 1.71875 -6.015625 C 2.03125 -6.160156 2.382812 -6.234375 2.78125 -6.234375 C 3.425781 -6.234375 3.945312 -6.070312 4.34375 -5.75 C 4.738281 -5.4375 4.953125 -4.992188 4.984375 -4.421875 L 4.46875 -4.421875 C 4.445312 -4.828125 4.285156 -5.160156 3.984375 -5.421875 C 3.691406 -5.679688 3.285156 -5.8125 2.765625 -5.8125 C 2.328125 -5.8125 1.960938 -5.695312 1.671875 -5.46875 C 1.390625 -5.238281 1.25 -4.960938 1.25 -4.640625 C 1.25 -4.347656 1.328125 -4.113281 1.484375 -3.9375 C 1.648438 -3.757812 1.851562 -3.625 2.09375 -3.53125 C 2.332031 -3.4375 2.648438 -3.335938 3.046875 -3.234375 C 3.472656 -3.117188 3.816406 -3.003906 4.078125 -2.890625 C 4.335938 -2.785156 4.554688 -2.628906 4.734375 -2.421875 C 4.921875 -2.210938 5.015625 -1.9375 5.015625 -1.59375 C 5.015625 -1.269531 4.925781 -0.976562 4.75 -0.71875 C 4.570312 -0.46875 4.328125 -0.269531 4.015625 -0.125 C 3.710938 0.0195312 3.367188 0.09375 2.984375 0.09375 Z M 2.984375 0.09375 "/></g></g></g><g fill="#ffffff" fill-opacity="1"><g transform="translate(41.440002, 76.909725)"><g><path d="M 0.609375 -3.078125 C 0.609375 -3.710938 0.734375 -4.269531 0.984375 -4.75 C 1.242188 -5.226562 1.597656 -5.59375 2.046875 -5.84375 C 2.492188 -6.101562 3.003906 -6.234375 3.578125 -6.234375 C 4.234375 -6.234375 4.785156 -6.070312 5.234375 -5.75 C 5.691406 -5.4375 6.007812 -5.035156 6.1875 -4.546875 L 6.1875 -6.15625 L 6.703125 -6.15625 L 6.703125 0 L 6.1875 0 L 6.1875 -1.625 C 6.007812 -1.125 5.691406 -0.710938 5.234375 -0.390625 C 4.773438 -0.0664062 4.222656 0.09375 3.578125 0.09375 C 3.003906 0.09375 2.492188 -0.0351562 2.046875 -0.296875 C 1.597656 -0.554688 1.242188 -0.925781 0.984375 -1.40625 C 0.734375 -1.882812 0.609375 -2.441406 0.609375 -3.078125 Z M 6.1875 -3.078125 C 6.1875 -3.617188 6.078125 -4.09375 5.859375 -4.5 C 5.640625 -4.914062 5.335938 -5.234375 4.953125 -5.453125 C 4.566406 -5.679688 4.132812 -5.796875 3.65625 -5.796875 C 3.15625 -5.796875 2.710938 -5.6875 2.328125 -5.46875 C 1.953125 -5.257812 1.660156 -4.945312 1.453125 -4.53125 C 1.242188 -4.125 1.140625 -3.640625 1.140625 -3.078125 C 1.140625 -2.523438 1.242188 -2.039062 1.453125 -1.625 C 1.660156 -1.21875 1.957031 -0.90625 2.34375 -0.6875 C 2.726562 -0.46875 3.164062 -0.359375 3.65625 -0.359375 C 4.132812 -0.359375 4.566406 -0.46875 4.953125 -0.6875 C 5.335938 -0.914062 5.640625 -1.234375 5.859375 -1.640625 C 6.078125 -2.054688 6.1875 -2.535156 6.1875 -3.078125 Z M 6.1875 -3.078125 "/></g></g></g><g fill="#ffffff" fill-opacity="1"><g transform="translate(48.642231, 76.909725)"><g><path d="M 3.578125 -6.234375 C 4.234375 -6.234375 4.785156 -6.078125 5.234375 -5.765625 C 5.691406 -5.453125 6.007812 -5.050781 6.1875 -4.5625 L 6.1875 -6.15625 L 6.703125 -6.15625 L 6.703125 0.1875 C 6.703125 0.757812 6.578125 1.257812 6.328125 1.6875 C 6.078125 2.113281 5.738281 2.441406 5.3125 2.671875 C 4.894531 2.898438 4.425781 3.015625 3.90625 3.015625 C 3.132812 3.015625 2.492188 2.828125 1.984375 2.453125 C 1.472656 2.085938 1.140625 1.59375 0.984375 0.96875 L 1.5 0.96875 C 1.644531 1.457031 1.925781 1.847656 2.34375 2.140625 C 2.757812 2.429688 3.28125 2.578125 3.90625 2.578125 C 4.332031 2.578125 4.71875 2.476562 5.0625 2.28125 C 5.414062 2.09375 5.691406 1.816406 5.890625 1.453125 C 6.085938 1.097656 6.1875 0.675781 6.1875 0.1875 L 6.1875 -1.609375 C 6.007812 -1.117188 5.691406 -0.710938 5.234375 -0.390625 C 4.773438 -0.0664062 4.222656 0.09375 3.578125 0.09375 C 3.003906 0.09375 2.492188 -0.0351562 2.046875 -0.296875 C 1.597656 -0.554688 1.242188 -0.925781 0.984375 -1.40625 C 0.734375 -1.882812 0.609375 -2.441406 0.609375 -3.078125 C 0.609375 -3.710938 0.734375 -4.269531 0.984375 -4.75 C 1.242188 -5.226562 1.597656 -5.59375 2.046875 -5.84375 C 2.492188 -6.101562 3.003906 -6.234375 3.578125 -6.234375 Z M 6.1875 -3.078125 C 6.1875 -3.617188 6.078125 -4.09375 5.859375 -4.5 C 5.640625 -4.914062 5.335938 -5.234375 4.953125 -5.453125 C 4.566406 -5.679688 4.132812 -5.796875 3.65625 -5.796875 C 3.15625 -5.796875 2.710938 -5.6875 2.328125 -5.46875 C 1.953125 -5.257812 1.660156 -4.945312 1.453125 -4.53125 C 1.242188 -4.125 1.140625 -3.640625 1.140625 -3.078125 C 1.140625 -2.523438 1.242188 -2.039062 1.453125 -1.625 C 1.660156 -1.21875 1.957031 -0.90625 2.34375 -0.6875 C 2.726562 -0.46875 3.164062 -0.359375 3.65625 -0.359375 C 4.132812 -0.359375 4.566406 -0.46875 4.953125 -0.6875 C 5.335938 -0.914062 5.640625 -1.234375 5.859375 -1.640625 C 6.078125 -2.054688 6.1875 -2.535156 6.1875 -3.078125 Z M 6.1875 -3.078125 "/></g></g></g><g fill="#ffffff" fill-opacity="1"><g transform="translate(55.84446, 76.909725)"><g><path d="M 1.1875 -7.53125 C 1.070312 -7.53125 0.972656 -7.566406 0.890625 -7.640625 C 0.804688 -7.722656 0.765625 -7.832031 0.765625 -7.96875 C 0.765625 -8.101562 0.804688 -8.210938 0.890625 -8.296875 C 0.972656 -8.378906 1.070312 -8.421875 1.1875 -8.421875 C 1.3125 -8.421875 1.414062 -8.378906 1.5 -8.296875 C 1.582031 -8.210938 1.625 -8.101562 1.625 -7.96875 C 1.625 -7.832031 1.582031 -7.722656 1.5 -7.640625 C 1.414062 -7.566406 1.3125 -7.53125 1.1875 -7.53125 Z M 1.4375 -6.15625 L 1.4375 0 L 0.9375 0 L 0.9375 -6.15625 Z M 1.4375 -6.15625 "/></g></g></g><g fill="#ffffff" fill-opacity="1"><g transform="translate(57.795272, 76.909725)"><g><path d="M 3.703125 -6.28125 C 4.441406 -6.28125 5.039062 -6.054688 5.5 -5.609375 C 5.957031 -5.160156 6.1875 -4.492188 6.1875 -3.609375 L 6.1875 0 L 5.6875 0 L 5.6875 -3.578125 C 5.6875 -4.304688 5.5 -4.863281 5.125 -5.25 C 4.757812 -5.644531 4.257812 -5.84375 3.625 -5.84375 C 2.957031 -5.84375 2.425781 -5.628906 2.03125 -5.203125 C 1.632812 -4.785156 1.4375 -4.160156 1.4375 -3.328125 L 1.4375 0 L 0.9375 0 L 0.9375 -6.15625 L 1.4375 -6.15625 L 1.4375 -4.859375 C 1.613281 -5.316406 1.90625 -5.664062 2.3125 -5.90625 C 2.71875 -6.15625 3.179688 -6.28125 3.703125 -6.28125 Z M 3.703125 -6.28125 "/></g></g></g><g fill="#ffffff" fill-opacity="1"><g transform="translate(64.430394, 76.909725)"><g><path d="M 3.578125 -6.234375 C 4.234375 -6.234375 4.785156 -6.078125 5.234375 -5.765625 C 5.691406 -5.453125 6.007812 -5.050781 6.1875 -4.5625 L 6.1875 -6.15625 L 6.703125 -6.15625 L 6.703125 0.1875 C 6.703125 0.757812 6.578125 1.257812 6.328125 1.6875 C 6.078125 2.113281 5.738281 2.441406 5.3125 2.671875 C 4.894531 2.898438 4.425781 3.015625 3.90625 3.015625 C 3.132812 3.015625 2.492188 2.828125 1.984375 2.453125 C 1.472656 2.085938 1.140625 1.59375 0.984375 0.96875 L 1.5 0.96875 C 1.644531 1.457031 1.925781 1.847656 2.34375 2.140625 C 2.757812 2.429688 3.28125 2.578125 3.90625 2.578125 C 4.332031 2.578125 4.71875 2.476562 5.0625 2.28125 C 5.414062 2.09375 5.691406 1.816406 5.890625 1.453125 C 6.085938 1.097656 6.1875 0.675781 6.1875 0.1875 L 6.1875 -1.609375 C 6.007812 -1.117188 5.691406 -0.710938 5.234375 -0.390625 C 4.773438 -0.0664062 4.222656 0.09375 3.578125 0.09375 C 3.003906 0.09375 2.492188 -0.0351562 2.046875 -0.296875 C 1.597656 -0.554688 1.242188 -0.925781 0.984375 -1.40625 C 0.734375 -1.882812 0.609375 -2.441406 0.609375 -3.078125 C 0.609375 -3.710938 0.734375 -4.269531 0.984375 -4.75 C 1.242188 -5.226562 1.597656 -5.59375 2.046875 -5.84375 C 2.492188 -6.101562 3.003906 -6.234375 3.578125 -6.234375 Z M 6.1875 -3.078125 C 6.1875 -3.617188 6.078125 -4.09375 5.859375 -4.5 C 5.640625 -4.914062 5.335938 -5.234375 4.953125 -5.453125 C 4.566406 -5.679688 4.132812 -5.796875 3.65625 -5.796875 C 3.15625 -5.796875 2.710938 -5.6875 2.328125 -5.46875 C 1.953125 -5.257812 1.660156 -4.945312 1.453125 -4.53125 C 1.242188 -4.125 1.140625 -3.640625 1.140625 -3.078125 C 1.140625 -2.523438 1.242188 -2.039062 1.453125 -1.625 C 1.660156 -1.21875 1.957031 -0.90625 2.34375 -0.6875 C 2.726562 -0.46875 3.164062 -0.359375 3.65625 -0.359375 C 4.132812 -0.359375 4.566406 -0.46875 4.953125 -0.6875 C 5.335938 -0.914062 5.640625 -1.234375 5.859375 -1.640625 C 6.078125 -2.054688 6.1875 -2.535156 6.1875 -3.078125 Z M 6.1875 -3.078125 "/></g></g></g><g fill="#ffffff" fill-opacity="1"><g transform="translate(71.632623, 76.909725)"><g/></g></g><g fill="#ffffff" fill-opacity="1"><g transform="translate(74.400066, 76.909725)"><g><path d="M 5.328125 -7.96875 L 5.328125 -7.53125 L 3.0625 -7.53125 L 3.0625 0 L 2.546875 0 L 2.546875 -7.53125 L 0.28125 -7.53125 L 0.28125 -7.96875 Z M 5.328125 -7.96875 "/></g></g></g><g fill="#ffffff" fill-opacity="1"><g transform="translate(79.583391, 76.909725)"><g><path d="M 3.71875 -6.28125 C 4.445312 -6.28125 5.039062 -6.054688 5.5 -5.609375 C 5.957031 -5.160156 6.1875 -4.492188 6.1875 -3.609375 L 6.1875 0 L 5.6875 0 L 5.6875 -3.578125 C 5.6875 -4.304688 5.5 -4.863281 5.125 -5.25 C 4.757812 -5.644531 4.257812 -5.84375 3.625 -5.84375 C 2.957031 -5.84375 2.425781 -5.628906 2.03125 -5.203125 C 1.632812 -4.785156 1.4375 -4.160156 1.4375 -3.328125 L 1.4375 0 L 0.9375 0 L 0.9375 -8.390625 L 1.4375 -8.390625 L 1.4375 -4.859375 C 1.613281 -5.316406 1.90625 -5.664062 2.3125 -5.90625 C 2.71875 -6.15625 3.1875 -6.28125 3.71875 -6.28125 Z M 3.71875 -6.28125 "/></g></g></g><g fill="#ffffff" fill-opacity="1"><g transform="translate(86.218513, 76.909725)"><g><path d="M 0.609375 -3.078125 C 0.609375 -3.710938 0.734375 -4.269531 0.984375 -4.75 C 1.242188 -5.226562 1.597656 -5.59375 2.046875 -5.84375 C 2.492188 -6.101562 3.003906 -6.234375 3.578125 -6.234375 C 4.234375 -6.234375 4.785156 -6.070312 5.234375 -5.75 C 5.691406 -5.4375 6.007812 -5.035156 6.1875 -4.546875 L 6.1875 -6.15625 L 6.703125 -6.15625 L 6.703125 0 L 6.1875 0 L 6.1875 -1.625 C 6.007812 -1.125 5.691406 -0.710938 5.234375 -0.390625 C 4.773438 -0.0664062 4.222656 0.09375 3.578125 0.09375 C 3.003906 0.09375 2.492188 -0.0351562 2.046875 -0.296875 C 1.597656 -0.554688 1.242188 -0.925781 0.984375 -1.40625 C 0.734375 -1.882812 0.609375 -2.441406 0.609375 -3.078125 Z M 6.1875 -3.078125 C 6.1875 -3.617188 6.078125 -4.09375 5.859375 -4.5 C 5.640625 -4.914062 5.335938 -5.234375 4.953125 -5.453125 C 4.566406 -5.679688 4.132812 -5.796875 3.65625 -5.796875 C 3.15625 -5.796875 2.710938 -5.6875 2.328125 -5.46875 C 1.953125 -5.257812 1.660156 -4.945312 1.453125 -4.53125 C 1.242188 -4.125 1.140625 -3.640625 1.140625 -3.078125 C 1.140625 -2.523438 1.242188 -2.039062 1.453125 -1.625 C 1.660156 -1.21875 1.957031 -0.90625 2.34375 -0.6875 C 2.726562 -0.46875 3.164062 -0.359375 3.65625 -0.359375 C 4.132812 -0.359375 4.566406 -0.46875 4.953125 -0.6875 C 5.335938 -0.914062 5.640625 -1.234375 5.859375 -1.640625 C 6.078125 -2.054688 6.1875 -2.535156 6.1875 -3.078125 Z M 6.1875 -3.078125 "/></g></g></g><g fill="#ffffff" fill-opacity="1"><g transform="translate(93.420742, 76.909725)"><g><path d="M 1.6875 -5.71875 L 1.6875 -1.640625 C 1.6875 -1.191406 1.769531 -0.878906 1.9375 -0.703125 C 2.101562 -0.535156 2.398438 -0.453125 2.828125 -0.453125 L 3.515625 -0.453125 L 3.515625 0 L 2.75 0 C 2.207031 0 1.8125 -0.125 1.5625 -0.375 C 1.3125 -0.632812 1.1875 -1.054688 1.1875 -1.640625 L 1.1875 -5.71875 L 0.25 -5.71875 L 0.25 -6.15625 L 1.1875 -6.15625 L 1.1875 -7.71875 L 1.6875 -7.71875 L 1.6875 -6.15625 L 3.515625 -6.15625 L 3.515625 -5.71875 Z M 1.6875 -5.71875 "/></g></g></g><g fill="#ffffff" fill-opacity="1"><g transform="translate(96.925421, 76.909725)"><g/></g></g><g fill="#ffffff" fill-opacity="1"><g transform="translate(99.692864, 76.909725)"><g><path d="M 10.203125 -7.96875 L 8 0 L 7.4375 0 L 5.265625 -7.171875 L 3.046875 0 L 2.515625 0 L 0.359375 -7.96875 L 0.890625 -7.96875 L 2.796875 -0.71875 L 4.984375 -7.96875 L 5.5625 -7.96875 L 7.71875 -0.671875 L 9.640625 -7.96875 Z M 10.203125 -7.96875 "/></g></g></g><g fill="#ffffff" fill-opacity="1"><g transform="translate(109.798687, 76.909725)"><g><path d="M 3.640625 0.09375 C 3.066406 0.09375 2.546875 -0.0351562 2.078125 -0.296875 C 1.617188 -0.554688 1.257812 -0.925781 1 -1.40625 C 0.738281 -1.882812 0.609375 -2.441406 0.609375 -3.078125 C 0.609375 -3.710938 0.738281 -4.269531 1 -4.75 C 1.269531 -5.238281 1.632812 -5.609375 2.09375 -5.859375 C 2.5625 -6.109375 3.082031 -6.234375 3.65625 -6.234375 C 4.238281 -6.234375 4.757812 -6.109375 5.21875 -5.859375 C 5.675781 -5.609375 6.035156 -5.242188 6.296875 -4.765625 C 6.554688 -4.285156 6.6875 -3.722656 6.6875 -3.078125 C 6.6875 -2.441406 6.554688 -1.882812 6.296875 -1.40625 C 6.035156 -0.925781 5.671875 -0.554688 5.203125 -0.296875 C 4.734375 -0.0351562 4.210938 0.09375 3.640625 0.09375 Z M 3.640625 -0.359375 C 4.085938 -0.359375 4.503906 -0.457031 4.890625 -0.65625 C 5.285156 -0.863281 5.597656 -1.171875 5.828125 -1.578125 C 6.066406 -1.984375 6.1875 -2.484375 6.1875 -3.078125 C 6.1875 -3.671875 6.066406 -4.171875 5.828125 -4.578125 C 5.597656 -4.992188 5.289062 -5.300781 4.90625 -5.5 C 4.519531 -5.695312 4.101562 -5.796875 3.65625 -5.796875 C 3.207031 -5.796875 2.789062 -5.695312 2.40625 -5.5 C 2.03125 -5.300781 1.722656 -4.992188 1.484375 -4.578125 C 1.253906 -4.171875 1.140625 -3.671875 1.140625 -3.078125 C 1.140625 -2.484375 1.253906 -1.984375 1.484375 -1.578125 C 1.710938 -1.171875 2.015625 -0.863281 2.390625 -0.65625 C 2.773438 -0.457031 3.191406 -0.359375 3.640625 -0.359375 Z M 3.640625 -0.359375 "/></g></g></g><g fill="#ffffff" fill-opacity="1"><g transform="translate(116.683328, 76.909725)"><g><path d="M 1.4375 -4.890625 C 1.59375 -5.335938 1.863281 -5.679688 2.25 -5.921875 C 2.632812 -6.160156 3.125 -6.28125 3.71875 -6.28125 L 3.71875 -5.75 L 3.546875 -5.75 C 2.941406 -5.75 2.4375 -5.578125 2.03125 -5.234375 C 1.632812 -4.890625 1.4375 -4.328125 1.4375 -3.546875 L 1.4375 0 L 0.9375 0 L 0.9375 -6.15625 L 1.4375 -6.15625 Z M 1.4375 -4.890625 "/></g></g></g><g fill="#ffffff" fill-opacity="1"><g transform="translate(120.222041, 76.909725)"><g><path d="M 4.125 0 L 1.4375 -2.828125 L 1.4375 0 L 0.9375 0 L 0.9375 -8.390625 L 1.4375 -8.390625 L 1.4375 -3.375 L 4.078125 -6.15625 L 4.796875 -6.15625 L 1.8125 -3.09375 L 4.828125 0 Z M 4.125 0 "/></g></g></g><g fill="#ffffff" fill-opacity="1"><g transform="translate(124.747515, 76.909725)"><g><path d="M 2.984375 0.09375 C 2.296875 0.09375 1.734375 -0.0546875 1.296875 -0.359375 C 0.859375 -0.660156 0.613281 -1.09375 0.5625 -1.65625 L 1.09375 -1.65625 C 1.125 -1.257812 1.300781 -0.941406 1.625 -0.703125 C 1.957031 -0.472656 2.410156 -0.359375 2.984375 -0.359375 C 3.453125 -0.359375 3.820312 -0.472656 4.09375 -0.703125 C 4.375 -0.941406 4.515625 -1.238281 4.515625 -1.59375 C 4.515625 -1.832031 4.441406 -2.03125 4.296875 -2.1875 C 4.148438 -2.34375 3.96875 -2.460938 3.75 -2.546875 C 3.53125 -2.628906 3.226562 -2.71875 2.84375 -2.8125 C 2.394531 -2.9375 2.03125 -3.054688 1.75 -3.171875 C 1.46875 -3.285156 1.226562 -3.457031 1.03125 -3.6875 C 0.832031 -3.925781 0.734375 -4.242188 0.734375 -4.640625 C 0.734375 -4.929688 0.820312 -5.195312 1 -5.4375 C 1.175781 -5.6875 1.414062 -5.878906 1.71875 -6.015625 C 2.03125 -6.160156 2.382812 -6.234375 2.78125 -6.234375 C 3.425781 -6.234375 3.945312 -6.070312 4.34375 -5.75 C 4.738281 -5.4375 4.953125 -4.992188 4.984375 -4.421875 L 4.46875 -4.421875 C 4.445312 -4.828125 4.285156 -5.160156 3.984375 -5.421875 C 3.691406 -5.679688 3.285156 -5.8125 2.765625 -5.8125 C 2.328125 -5.8125 1.960938 -5.695312 1.671875 -5.46875 C 1.390625 -5.238281 1.25 -4.960938 1.25 -4.640625 C 1.25 -4.347656 1.328125 -4.113281 1.484375 -3.9375 C 1.648438 -3.757812 1.851562 -3.625 2.09375 -3.53125 C 2.332031 -3.4375 2.648438 -3.335938 3.046875 -3.234375 C 3.472656 -3.117188 3.816406 -3.003906 4.078125 -2.890625 C 4.335938 -2.785156 4.554688 -2.628906 4.734375 -2.421875 C 4.921875 -2.210938 5.015625 -1.9375 5.015625 -1.59375 C 5.015625 -1.269531 4.925781 -0.976562 4.75 -0.71875 C 4.570312 -0.46875 4.328125 -0.269531 4.015625 -0.125 C 3.710938 0.0195312 3.367188 0.09375 2.984375 0.09375 Z M 2.984375 0.09375 "/></g></g></g><g fill="#ffffff" fill-opacity="1"><g transform="translate(129.953526, 76.909725)"><g/></g></g><g fill="#ffffff" fill-opacity="1"><g transform="translate(132.720969, 76.909725)"><g><path d="M 3.28125 -5.703125 L 1.671875 -5.703125 L 1.671875 0 L 1.171875 0 L 1.171875 -5.703125 L 0.234375 -5.703125 L 0.234375 -6.15625 L 1.171875 -6.15625 L 1.171875 -6.59375 C 1.171875 -7.238281 1.332031 -7.71875 1.65625 -8.03125 C 1.976562 -8.34375 2.507812 -8.5 3.25 -8.5 L 3.25 -8.046875 C 2.664062 -8.046875 2.253906 -7.929688 2.015625 -7.703125 C 1.785156 -7.472656 1.671875 -7.101562 1.671875 -6.59375 L 1.671875 -6.15625 L 3.28125 -6.15625 Z M 3.28125 -5.703125 "/></g></g></g><g fill="#ffffff" fill-opacity="1"><g transform="translate(135.9421, 76.909725)"><g><path d="M 3.640625 0.09375 C 3.066406 0.09375 2.546875 -0.0351562 2.078125 -0.296875 C 1.617188 -0.554688 1.257812 -0.925781 1 -1.40625 C 0.738281 -1.882812 0.609375 -2.441406 0.609375 -3.078125 C 0.609375 -3.710938 0.738281 -4.269531 1 -4.75 C 1.269531 -5.238281 1.632812 -5.609375 2.09375 -5.859375 C 2.5625 -6.109375 3.082031 -6.234375 3.65625 -6.234375 C 4.238281 -6.234375 4.757812 -6.109375 5.21875 -5.859375 C 5.675781 -5.609375 6.035156 -5.242188 6.296875 -4.765625 C 6.554688 -4.285156 6.6875 -3.722656 6.6875 -3.078125 C 6.6875 -2.441406 6.554688 -1.882812 6.296875 -1.40625 C 6.035156 -0.925781 5.671875 -0.554688 5.203125 -0.296875 C 4.734375 -0.0351562 4.210938 0.09375 3.640625 0.09375 Z M 3.640625 -0.359375 C 4.085938 -0.359375 4.503906 -0.457031 4.890625 -0.65625 C 5.285156 -0.863281 5.597656 -1.171875 5.828125 -1.578125 C 6.066406 -1.984375 6.1875 -2.484375 6.1875 -3.078125 C 6.1875 -3.671875 6.066406 -4.171875 5.828125 -4.578125 C 5.597656 -4.992188 5.289062 -5.300781 4.90625 -5.5 C 4.519531 -5.695312 4.101562 -5.796875 3.65625 -5.796875 C 3.207031 -5.796875 2.789062 -5.695312 2.40625 -5.5 C 2.03125 -5.300781 1.722656 -4.992188 1.484375 -4.578125 C 1.253906 -4.171875 1.140625 -3.671875 1.140625 -3.078125 C 1.140625 -2.484375 1.253906 -1.984375 1.484375 -1.578125 C 1.710938 -1.171875 2.015625 -0.863281 2.390625 -0.65625 C 2.773438 -0.457031 3.191406 -0.359375 3.640625 -0.359375 Z M 3.640625 -0.359375 "/></g></g></g><g fill="#ffffff" fill-opacity="1"><g transform="translate(142.826747, 76.909725)"><g><path d="M 1.4375 -4.890625 C 1.59375 -5.335938 1.863281 -5.679688 2.25 -5.921875 C 2.632812 -6.160156 3.125 -6.28125 3.71875 -6.28125 L 3.71875 -5.75 L 3.546875 -5.75 C 2.941406 -5.75 2.4375 -5.578125 2.03125 -5.234375 C 1.632812 -4.890625 1.4375 -4.328125 1.4375 -3.546875 L 1.4375 0 L 0.9375 0 L 0.9375 -6.15625 L 1.4375 -6.15625 Z M 1.4375 -4.890625 "/></g></g></g><g fill="#ffffff" fill-opacity="1"><g transform="translate(146.36546, 76.909725)"><g/></g></g><g fill="#ffffff" fill-opacity="1"><g transform="translate(149.132903, 76.909725)"><g><path d="M 5.84375 -7.96875 L 3.328125 -3.21875 L 3.328125 0 L 2.828125 0 L 2.828125 -3.21875 L 0.296875 -7.96875 L 0.875 -7.96875 L 3.078125 -3.703125 L 5.265625 -7.96875 Z M 5.84375 -7.96875 "/></g></g></g><g fill="#ffffff" fill-opacity="1"><g transform="translate(154.837964, 76.909725)"><g><path d="M 3.640625 0.09375 C 3.066406 0.09375 2.546875 -0.0351562 2.078125 -0.296875 C 1.617188 -0.554688 1.257812 -0.925781 1 -1.40625 C 0.738281 -1.882812 0.609375 -2.441406 0.609375 -3.078125 C 0.609375 -3.710938 0.738281 -4.269531 1 -4.75 C 1.269531 -5.238281 1.632812 -5.609375 2.09375 -5.859375 C 2.5625 -6.109375 3.082031 -6.234375 3.65625 -6.234375 C 4.238281 -6.234375 4.757812 -6.109375 5.21875 -5.859375 C 5.675781 -5.609375 6.035156 -5.242188 6.296875 -4.765625 C 6.554688 -4.285156 6.6875 -3.722656 6.6875 -3.078125 C 6.6875 -2.441406 6.554688 -1.882812 6.296875 -1.40625 C 6.035156 -0.925781 5.671875 -0.554688 5.203125 -0.296875 C 4.734375 -0.0351562 4.210938 0.09375 3.640625 0.09375 Z M 3.640625 -0.359375 C 4.085938 -0.359375 4.503906 -0.457031 4.890625 -0.65625 C 5.285156 -0.863281 5.597656 -1.171875 5.828125 -1.578125 C 6.066406 -1.984375 6.1875 -2.484375 6.1875 -3.078125 C 6.1875 -3.671875 6.066406 -4.171875 5.828125 -4.578125 C 5.597656 -4.992188 5.289062 -5.300781 4.90625 -5.5 C 4.519531 -5.695312 4.101562 -5.796875 3.65625 -5.796875 C 3.207031 -5.796875 2.789062 -5.695312 2.40625 -5.5 C 2.03125 -5.300781 1.722656 -4.992188 1.484375 -4.578125 C 1.253906 -4.171875 1.140625 -3.671875 1.140625 -3.078125 C 1.140625 -2.484375 1.253906 -1.984375 1.484375 -1.578125 C 1.710938 -1.171875 2.015625 -0.863281 2.390625 -0.65625 C 2.773438 -0.457031 3.191406 -0.359375 3.640625 -0.359375 Z M 3.640625 -0.359375 "/></g></g></g><g fill="#ffffff" fill-opacity="1"><g transform="translate(161.72261, 76.909725)"><g><path d="M 6.140625 -6.15625 L 6.140625 0 L 5.625 0 L 5.625 -1.34375 C 5.445312 -0.875 5.15625 -0.515625 4.75 -0.265625 C 4.351562 -0.015625 3.894531 0.109375 3.375 0.109375 C 2.632812 0.109375 2.03125 -0.113281 1.5625 -0.5625 C 1.101562 -1.019531 0.875 -1.691406 0.875 -2.578125 L 0.875 -6.15625 L 1.375 -6.15625 L 1.375 -2.609375 C 1.375 -1.878906 1.554688 -1.316406 1.921875 -0.921875 C 2.296875 -0.535156 2.800781 -0.34375 3.4375 -0.34375 C 4.101562 -0.34375 4.632812 -0.550781 5.03125 -0.96875 C 5.425781 -1.394531 5.625 -2.023438 5.625 -2.859375 L 5.625 -6.15625 Z M 6.140625 -6.15625 "/></g></g></g></svg>